<mxfile host="app.diagrams.net" modified="2024-02-06T13:36:53.967Z" agent="Mozilla/5.0 (Windows NT 10.0; Win64; x64) AppleWebKit/537.36 (KHTML, like Gecko) Chrome/121.0.0.0 Safari/537.36" etag="Shx0infjt403WLuCKd7i" version="23.1.1" type="device">
  <diagram name="Страница — 1" id="Pn02A32nqaSbkwbhJP6s">
    <mxGraphModel dx="1050" dy="530" grid="1" gridSize="10" guides="1" tooltips="1" connect="1" arrows="1" fold="1" page="1" pageScale="1" pageWidth="827" pageHeight="1169" math="0" shadow="0">
      <root>
        <mxCell id="0" />
        <mxCell id="1" parent="0" />
        <mxCell id="Klq5en-hx2ktYxPnSmKw-6" value="Тест" style="swimlane;fontStyle=0;childLayout=stackLayout;horizontal=1;startSize=26;fillColor=none;horizontalStack=0;resizeParent=1;resizeParentMax=0;resizeLast=0;collapsible=1;marginBottom=0;whiteSpace=wrap;html=1;" parent="1" vertex="1">
          <mxGeometry x="50" y="50" width="140" height="130" as="geometry" />
        </mxCell>
        <mxCell id="Klq5en-hx2ktYxPnSmKw-7" value="+ ID: int" style="text;strokeColor=none;fillColor=none;align=left;verticalAlign=top;spacingLeft=4;spacingRight=4;overflow=hidden;rotatable=0;points=[[0,0.5],[1,0.5]];portConstraint=eastwest;whiteSpace=wrap;html=1;" parent="Klq5en-hx2ktYxPnSmKw-6" vertex="1">
          <mxGeometry y="26" width="140" height="26" as="geometry" />
        </mxCell>
        <mxCell id="Klq5en-hx2ktYxPnSmKw-8" value="+ Название: string" style="text;strokeColor=none;fillColor=none;align=left;verticalAlign=top;spacingLeft=4;spacingRight=4;overflow=hidden;rotatable=0;points=[[0,0.5],[1,0.5]];portConstraint=eastwest;whiteSpace=wrap;html=1;" parent="Klq5en-hx2ktYxPnSmKw-6" vertex="1">
          <mxGeometry y="52" width="140" height="26" as="geometry" />
        </mxCell>
        <mxCell id="Klq5en-hx2ktYxPnSmKw-9" value="+ Описание: string" style="text;strokeColor=none;fillColor=none;align=left;verticalAlign=top;spacingLeft=4;spacingRight=4;overflow=hidden;rotatable=0;points=[[0,0.5],[1,0.5]];portConstraint=eastwest;whiteSpace=wrap;html=1;" parent="Klq5en-hx2ktYxPnSmKw-6" vertex="1">
          <mxGeometry y="78" width="140" height="26" as="geometry" />
        </mxCell>
        <mxCell id="Klq5en-hx2ktYxPnSmKw-10" value="+ Предмет: string" style="text;strokeColor=none;fillColor=none;align=left;verticalAlign=top;spacingLeft=4;spacingRight=4;overflow=hidden;rotatable=0;points=[[0,0.5],[1,0.5]];portConstraint=eastwest;whiteSpace=wrap;html=1;" parent="Klq5en-hx2ktYxPnSmKw-6" vertex="1">
          <mxGeometry y="104" width="140" height="26" as="geometry" />
        </mxCell>
        <mxCell id="Klq5en-hx2ktYxPnSmKw-11" value="Вопрос" style="swimlane;fontStyle=0;childLayout=stackLayout;horizontal=1;startSize=26;fillColor=none;horizontalStack=0;resizeParent=1;resizeParentMax=0;resizeLast=0;collapsible=1;marginBottom=0;whiteSpace=wrap;html=1;" parent="1" vertex="1">
          <mxGeometry x="340" y="50" width="170" height="130" as="geometry" />
        </mxCell>
        <mxCell id="Klq5en-hx2ktYxPnSmKw-12" value="+ ID: int" style="text;strokeColor=none;fillColor=none;align=left;verticalAlign=top;spacingLeft=4;spacingRight=4;overflow=hidden;rotatable=0;points=[[0,0.5],[1,0.5]];portConstraint=eastwest;whiteSpace=wrap;html=1;" parent="Klq5en-hx2ktYxPnSmKw-11" vertex="1">
          <mxGeometry y="26" width="170" height="26" as="geometry" />
        </mxCell>
        <mxCell id="Klq5en-hx2ktYxPnSmKw-13" value="+ Текст: string" style="text;strokeColor=none;fillColor=none;align=left;verticalAlign=top;spacingLeft=4;spacingRight=4;overflow=hidden;rotatable=0;points=[[0,0.5],[1,0.5]];portConstraint=eastwest;whiteSpace=wrap;html=1;" parent="Klq5en-hx2ktYxPnSmKw-11" vertex="1">
          <mxGeometry y="52" width="170" height="26" as="geometry" />
        </mxCell>
        <mxCell id="Klq5en-hx2ktYxPnSmKw-14" value="+ Варианты_ответов: string" style="text;strokeColor=none;fillColor=none;align=left;verticalAlign=top;spacingLeft=4;spacingRight=4;overflow=hidden;rotatable=0;points=[[0,0.5],[1,0.5]];portConstraint=eastwest;whiteSpace=wrap;html=1;" parent="Klq5en-hx2ktYxPnSmKw-11" vertex="1">
          <mxGeometry y="78" width="170" height="26" as="geometry" />
        </mxCell>
        <mxCell id="Klq5en-hx2ktYxPnSmKw-15" value="+ ID теста: int" style="text;strokeColor=none;fillColor=none;align=left;verticalAlign=top;spacingLeft=4;spacingRight=4;overflow=hidden;rotatable=0;points=[[0,0.5],[1,0.5]];portConstraint=eastwest;whiteSpace=wrap;html=1;" parent="Klq5en-hx2ktYxPnSmKw-11" vertex="1">
          <mxGeometry y="104" width="170" height="26" as="geometry" />
        </mxCell>
        <mxCell id="Klq5en-hx2ktYxPnSmKw-16" value="Ответ" style="swimlane;fontStyle=0;childLayout=stackLayout;horizontal=1;startSize=26;fillColor=none;horizontalStack=0;resizeParent=1;resizeParentMax=0;resizeLast=0;collapsible=1;marginBottom=0;whiteSpace=wrap;html=1;" parent="1" vertex="1">
          <mxGeometry x="620" y="170" width="140" height="128" as="geometry" />
        </mxCell>
        <mxCell id="Klq5en-hx2ktYxPnSmKw-17" value="+ ID: int" style="text;strokeColor=none;fillColor=none;align=left;verticalAlign=top;spacingLeft=4;spacingRight=4;overflow=hidden;rotatable=0;points=[[0,0.5],[1,0.5]];portConstraint=eastwest;whiteSpace=wrap;html=1;" parent="Klq5en-hx2ktYxPnSmKw-16" vertex="1">
          <mxGeometry y="26" width="140" height="26" as="geometry" />
        </mxCell>
        <mxCell id="Klq5en-hx2ktYxPnSmKw-18" value="+ Текст: string" style="text;strokeColor=none;fillColor=none;align=left;verticalAlign=top;spacingLeft=4;spacingRight=4;overflow=hidden;rotatable=0;points=[[0,0.5],[1,0.5]];portConstraint=eastwest;whiteSpace=wrap;html=1;" parent="Klq5en-hx2ktYxPnSmKw-16" vertex="1">
          <mxGeometry y="52" width="140" height="26" as="geometry" />
        </mxCell>
        <mxCell id="Klq5en-hx2ktYxPnSmKw-19" value="+ Итог: boolean" style="text;strokeColor=none;fillColor=none;align=left;verticalAlign=top;spacingLeft=4;spacingRight=4;overflow=hidden;rotatable=0;points=[[0,0.5],[1,0.5]];portConstraint=eastwest;whiteSpace=wrap;html=1;" parent="Klq5en-hx2ktYxPnSmKw-16" vertex="1">
          <mxGeometry y="78" width="140" height="24" as="geometry" />
        </mxCell>
        <mxCell id="Klq5en-hx2ktYxPnSmKw-20" value="+ ID вопроса: int" style="text;strokeColor=none;fillColor=none;align=left;verticalAlign=top;spacingLeft=4;spacingRight=4;overflow=hidden;rotatable=0;points=[[0,0.5],[1,0.5]];portConstraint=eastwest;whiteSpace=wrap;html=1;" parent="Klq5en-hx2ktYxPnSmKw-16" vertex="1">
          <mxGeometry y="102" width="140" height="26" as="geometry" />
        </mxCell>
        <mxCell id="Klq5en-hx2ktYxPnSmKw-21" value="Пользователь" style="swimlane;fontStyle=0;childLayout=stackLayout;horizontal=1;startSize=26;fillColor=none;horizontalStack=0;resizeParent=1;resizeParentMax=0;resizeLast=0;collapsible=1;marginBottom=0;whiteSpace=wrap;html=1;" parent="1" vertex="1">
          <mxGeometry x="50" y="240" width="140" height="130" as="geometry" />
        </mxCell>
        <mxCell id="Klq5en-hx2ktYxPnSmKw-22" value="+ ID: int" style="text;strokeColor=none;fillColor=none;align=left;verticalAlign=top;spacingLeft=4;spacingRight=4;overflow=hidden;rotatable=0;points=[[0,0.5],[1,0.5]];portConstraint=eastwest;whiteSpace=wrap;html=1;" parent="Klq5en-hx2ktYxPnSmKw-21" vertex="1">
          <mxGeometry y="26" width="140" height="26" as="geometry" />
        </mxCell>
        <mxCell id="Klq5en-hx2ktYxPnSmKw-23" value="+ Имя: string" style="text;strokeColor=none;fillColor=none;align=left;verticalAlign=top;spacingLeft=4;spacingRight=4;overflow=hidden;rotatable=0;points=[[0,0.5],[1,0.5]];portConstraint=eastwest;whiteSpace=wrap;html=1;" parent="Klq5en-hx2ktYxPnSmKw-21" vertex="1">
          <mxGeometry y="52" width="140" height="26" as="geometry" />
        </mxCell>
        <mxCell id="Klq5en-hx2ktYxPnSmKw-24" value="+ Роль: string" style="text;strokeColor=none;fillColor=none;align=left;verticalAlign=top;spacingLeft=4;spacingRight=4;overflow=hidden;rotatable=0;points=[[0,0.5],[1,0.5]];portConstraint=eastwest;whiteSpace=wrap;html=1;" parent="Klq5en-hx2ktYxPnSmKw-21" vertex="1">
          <mxGeometry y="78" width="140" height="26" as="geometry" />
        </mxCell>
        <mxCell id="Klq5en-hx2ktYxPnSmKw-25" value="+ Данные: string" style="text;strokeColor=none;fillColor=none;align=left;verticalAlign=top;spacingLeft=4;spacingRight=4;overflow=hidden;rotatable=0;points=[[0,0.5],[1,0.5]];portConstraint=eastwest;whiteSpace=wrap;html=1;" parent="Klq5en-hx2ktYxPnSmKw-21" vertex="1">
          <mxGeometry y="104" width="140" height="26" as="geometry" />
        </mxCell>
        <mxCell id="Klq5en-hx2ktYxPnSmKw-26" value="Результат теста" style="swimlane;fontStyle=0;childLayout=stackLayout;horizontal=1;startSize=26;fillColor=none;horizontalStack=0;resizeParent=1;resizeParentMax=0;resizeLast=0;collapsible=1;marginBottom=0;whiteSpace=wrap;html=1;" parent="1" vertex="1">
          <mxGeometry x="330" y="240" width="150" height="130" as="geometry" />
        </mxCell>
        <mxCell id="Klq5en-hx2ktYxPnSmKw-27" value="+ ID пользователя: int" style="text;strokeColor=none;fillColor=none;align=left;verticalAlign=top;spacingLeft=4;spacingRight=4;overflow=hidden;rotatable=0;points=[[0,0.5],[1,0.5]];portConstraint=eastwest;whiteSpace=wrap;html=1;" parent="Klq5en-hx2ktYxPnSmKw-26" vertex="1">
          <mxGeometry y="26" width="150" height="26" as="geometry" />
        </mxCell>
        <mxCell id="Klq5en-hx2ktYxPnSmKw-28" value="+ ID теста: int" style="text;strokeColor=none;fillColor=none;align=left;verticalAlign=top;spacingLeft=4;spacingRight=4;overflow=hidden;rotatable=0;points=[[0,0.5],[1,0.5]];portConstraint=eastwest;whiteSpace=wrap;html=1;" parent="Klq5en-hx2ktYxPnSmKw-26" vertex="1">
          <mxGeometry y="52" width="150" height="26" as="geometry" />
        </mxCell>
        <mxCell id="Klq5en-hx2ktYxPnSmKw-29" value="+ Дата и время: datetime" style="text;strokeColor=none;fillColor=none;align=left;verticalAlign=top;spacingLeft=4;spacingRight=4;overflow=hidden;rotatable=0;points=[[0,0.5],[1,0.5]];portConstraint=eastwest;whiteSpace=wrap;html=1;" parent="Klq5en-hx2ktYxPnSmKw-26" vertex="1">
          <mxGeometry y="78" width="150" height="26" as="geometry" />
        </mxCell>
        <mxCell id="Klq5en-hx2ktYxPnSmKw-30" value="+ Итоговый балл: float" style="text;strokeColor=none;fillColor=none;align=left;verticalAlign=top;spacingLeft=4;spacingRight=4;overflow=hidden;rotatable=0;points=[[0,0.5],[1,0.5]];portConstraint=eastwest;whiteSpace=wrap;html=1;" parent="Klq5en-hx2ktYxPnSmKw-26" vertex="1">
          <mxGeometry y="104" width="150" height="26" as="geometry" />
        </mxCell>
        <mxCell id="Klq5en-hx2ktYxPnSmKw-59" value="" style="edgeStyle=entityRelationEdgeStyle;fontSize=12;html=1;endArrow=ERoneToMany;rounded=0;exitX=1;exitY=0.5;exitDx=0;exitDy=0;entryX=0;entryY=0.5;entryDx=0;entryDy=0;" parent="1" source="Klq5en-hx2ktYxPnSmKw-7" target="Klq5en-hx2ktYxPnSmKw-15" edge="1">
          <mxGeometry width="100" height="100" relative="1" as="geometry">
            <mxPoint x="50" y="450" as="sourcePoint" />
            <mxPoint x="150" y="350" as="targetPoint" />
          </mxGeometry>
        </mxCell>
        <mxCell id="Klq5en-hx2ktYxPnSmKw-60" value="" style="edgeStyle=entityRelationEdgeStyle;fontSize=12;html=1;endArrow=ERoneToMany;rounded=0;exitX=1;exitY=0.5;exitDx=0;exitDy=0;entryX=0;entryY=0.5;entryDx=0;entryDy=0;" parent="1" source="Klq5en-hx2ktYxPnSmKw-12" target="Klq5en-hx2ktYxPnSmKw-20" edge="1">
          <mxGeometry width="100" height="100" relative="1" as="geometry">
            <mxPoint x="360" y="210" as="sourcePoint" />
            <mxPoint x="510" y="288" as="targetPoint" />
          </mxGeometry>
        </mxCell>
        <mxCell id="Klq5en-hx2ktYxPnSmKw-61" value="" style="edgeStyle=entityRelationEdgeStyle;fontSize=12;html=1;endArrow=ERoneToMany;rounded=0;exitX=1;exitY=0.5;exitDx=0;exitDy=0;entryX=0;entryY=0.5;entryDx=0;entryDy=0;" parent="1" source="Klq5en-hx2ktYxPnSmKw-22" target="Klq5en-hx2ktYxPnSmKw-27" edge="1">
          <mxGeometry width="100" height="100" relative="1" as="geometry">
            <mxPoint x="380" y="410" as="sourcePoint" />
            <mxPoint x="530" y="488" as="targetPoint" />
          </mxGeometry>
        </mxCell>
        <mxCell id="Klq5en-hx2ktYxPnSmKw-62" value="" style="edgeStyle=entityRelationEdgeStyle;fontSize=12;html=1;endArrow=ERoneToMany;rounded=0;exitX=1.004;exitY=0.766;exitDx=0;exitDy=0;entryX=0;entryY=0.5;entryDx=0;entryDy=0;exitPerimeter=0;" parent="1" source="Klq5en-hx2ktYxPnSmKw-7" target="Klq5en-hx2ktYxPnSmKw-28" edge="1">
          <mxGeometry width="100" height="100" relative="1" as="geometry">
            <mxPoint x="200" y="140" as="sourcePoint" />
            <mxPoint x="350" y="218" as="targetPoint" />
          </mxGeometry>
        </mxCell>
        <mxCell id="iJSi-uQUxxu9UWR6ey4F-1" value="&lt;font style=&quot;font-size: 20px;&quot;&gt;MSSQL&lt;/font&gt;" style="text;html=1;strokeColor=none;fillColor=none;align=center;verticalAlign=middle;whiteSpace=wrap;rounded=0;" parent="1" vertex="1">
          <mxGeometry x="370" width="60" height="30" as="geometry" />
        </mxCell>
        <mxCell id="iJSi-uQUxxu9UWR6ey4F-2" value="&lt;font style=&quot;font-size: 20px;&quot;&gt;ORACLE&lt;/font&gt;" style="text;html=1;strokeColor=none;fillColor=none;align=center;verticalAlign=middle;whiteSpace=wrap;rounded=0;" parent="1" vertex="1">
          <mxGeometry x="370" y="400" width="60" height="30" as="geometry" />
        </mxCell>
        <mxCell id="iJSi-uQUxxu9UWR6ey4F-27" value="Тест" style="swimlane;fontStyle=0;childLayout=stackLayout;horizontal=1;startSize=26;fillColor=none;horizontalStack=0;resizeParent=1;resizeParentMax=0;resizeLast=0;collapsible=1;marginBottom=0;whiteSpace=wrap;html=1;" parent="1" vertex="1">
          <mxGeometry x="45" y="450" width="165" height="130" as="geometry" />
        </mxCell>
        <mxCell id="iJSi-uQUxxu9UWR6ey4F-28" value="+ ID: number(10)" style="text;strokeColor=none;fillColor=none;align=left;verticalAlign=top;spacingLeft=4;spacingRight=4;overflow=hidden;rotatable=0;points=[[0,0.5],[1,0.5]];portConstraint=eastwest;whiteSpace=wrap;html=1;" parent="iJSi-uQUxxu9UWR6ey4F-27" vertex="1">
          <mxGeometry y="26" width="165" height="26" as="geometry" />
        </mxCell>
        <mxCell id="iJSi-uQUxxu9UWR6ey4F-29" value="+ Название: varchar2(100)" style="text;strokeColor=none;fillColor=none;align=left;verticalAlign=top;spacingLeft=4;spacingRight=4;overflow=hidden;rotatable=0;points=[[0,0.5],[1,0.5]];portConstraint=eastwest;whiteSpace=wrap;html=1;" parent="iJSi-uQUxxu9UWR6ey4F-27" vertex="1">
          <mxGeometry y="52" width="165" height="26" as="geometry" />
        </mxCell>
        <mxCell id="iJSi-uQUxxu9UWR6ey4F-30" value="+ Описание: varchar2(255)" style="text;strokeColor=none;fillColor=none;align=left;verticalAlign=top;spacingLeft=4;spacingRight=4;overflow=hidden;rotatable=0;points=[[0,0.5],[1,0.5]];portConstraint=eastwest;whiteSpace=wrap;html=1;" parent="iJSi-uQUxxu9UWR6ey4F-27" vertex="1">
          <mxGeometry y="78" width="165" height="26" as="geometry" />
        </mxCell>
        <mxCell id="iJSi-uQUxxu9UWR6ey4F-31" value="+ Предмет: varchar2(100)" style="text;strokeColor=none;fillColor=none;align=left;verticalAlign=top;spacingLeft=4;spacingRight=4;overflow=hidden;rotatable=0;points=[[0,0.5],[1,0.5]];portConstraint=eastwest;whiteSpace=wrap;html=1;" parent="iJSi-uQUxxu9UWR6ey4F-27" vertex="1">
          <mxGeometry y="104" width="165" height="26" as="geometry" />
        </mxCell>
        <mxCell id="iJSi-uQUxxu9UWR6ey4F-32" value="Вопрос" style="swimlane;fontStyle=0;childLayout=stackLayout;horizontal=1;startSize=26;fillColor=none;horizontalStack=0;resizeParent=1;resizeParentMax=0;resizeLast=0;collapsible=1;marginBottom=0;whiteSpace=wrap;html=1;" parent="1" vertex="1">
          <mxGeometry x="335" y="450" width="215" height="130" as="geometry" />
        </mxCell>
        <mxCell id="iJSi-uQUxxu9UWR6ey4F-33" value="+ ID: number(10)" style="text;strokeColor=none;fillColor=none;align=left;verticalAlign=top;spacingLeft=4;spacingRight=4;overflow=hidden;rotatable=0;points=[[0,0.5],[1,0.5]];portConstraint=eastwest;whiteSpace=wrap;html=1;" parent="iJSi-uQUxxu9UWR6ey4F-32" vertex="1">
          <mxGeometry y="26" width="215" height="26" as="geometry" />
        </mxCell>
        <mxCell id="iJSi-uQUxxu9UWR6ey4F-34" value="+ Текст: varchar2(255)" style="text;strokeColor=none;fillColor=none;align=left;verticalAlign=top;spacingLeft=4;spacingRight=4;overflow=hidden;rotatable=0;points=[[0,0.5],[1,0.5]];portConstraint=eastwest;whiteSpace=wrap;html=1;" parent="iJSi-uQUxxu9UWR6ey4F-32" vertex="1">
          <mxGeometry y="52" width="215" height="26" as="geometry" />
        </mxCell>
        <mxCell id="iJSi-uQUxxu9UWR6ey4F-35" value="+ Варианты_ответов: varchar2(255)" style="text;strokeColor=none;fillColor=none;align=left;verticalAlign=top;spacingLeft=4;spacingRight=4;overflow=hidden;rotatable=0;points=[[0,0.5],[1,0.5]];portConstraint=eastwest;whiteSpace=wrap;html=1;" parent="iJSi-uQUxxu9UWR6ey4F-32" vertex="1">
          <mxGeometry y="78" width="215" height="26" as="geometry" />
        </mxCell>
        <mxCell id="iJSi-uQUxxu9UWR6ey4F-36" value="+ ID теста: number(10)" style="text;strokeColor=none;fillColor=none;align=left;verticalAlign=top;spacingLeft=4;spacingRight=4;overflow=hidden;rotatable=0;points=[[0,0.5],[1,0.5]];portConstraint=eastwest;whiteSpace=wrap;html=1;" parent="iJSi-uQUxxu9UWR6ey4F-32" vertex="1">
          <mxGeometry y="104" width="215" height="26" as="geometry" />
        </mxCell>
        <mxCell id="iJSi-uQUxxu9UWR6ey4F-37" value="Ответ" style="swimlane;fontStyle=0;childLayout=stackLayout;horizontal=1;startSize=26;fillColor=none;horizontalStack=0;resizeParent=1;resizeParentMax=0;resizeLast=0;collapsible=1;marginBottom=0;whiteSpace=wrap;html=1;" parent="1" vertex="1">
          <mxGeometry x="615" y="570" width="155" height="128" as="geometry" />
        </mxCell>
        <mxCell id="iJSi-uQUxxu9UWR6ey4F-38" value="+ ID: number(10)" style="text;strokeColor=none;fillColor=none;align=left;verticalAlign=top;spacingLeft=4;spacingRight=4;overflow=hidden;rotatable=0;points=[[0,0.5],[1,0.5]];portConstraint=eastwest;whiteSpace=wrap;html=1;" parent="iJSi-uQUxxu9UWR6ey4F-37" vertex="1">
          <mxGeometry y="26" width="155" height="26" as="geometry" />
        </mxCell>
        <mxCell id="iJSi-uQUxxu9UWR6ey4F-39" value="+ Текст: varchar2(255)" style="text;strokeColor=none;fillColor=none;align=left;verticalAlign=top;spacingLeft=4;spacingRight=4;overflow=hidden;rotatable=0;points=[[0,0.5],[1,0.5]];portConstraint=eastwest;whiteSpace=wrap;html=1;" parent="iJSi-uQUxxu9UWR6ey4F-37" vertex="1">
          <mxGeometry y="52" width="155" height="26" as="geometry" />
        </mxCell>
        <mxCell id="iJSi-uQUxxu9UWR6ey4F-40" value="+ Итог: number(1)" style="text;strokeColor=none;fillColor=none;align=left;verticalAlign=top;spacingLeft=4;spacingRight=4;overflow=hidden;rotatable=0;points=[[0,0.5],[1,0.5]];portConstraint=eastwest;whiteSpace=wrap;html=1;" parent="iJSi-uQUxxu9UWR6ey4F-37" vertex="1">
          <mxGeometry y="78" width="155" height="24" as="geometry" />
        </mxCell>
        <mxCell id="iJSi-uQUxxu9UWR6ey4F-41" value="+ ID вопроса: number(10)" style="text;strokeColor=none;fillColor=none;align=left;verticalAlign=top;spacingLeft=4;spacingRight=4;overflow=hidden;rotatable=0;points=[[0,0.5],[1,0.5]];portConstraint=eastwest;whiteSpace=wrap;html=1;" parent="iJSi-uQUxxu9UWR6ey4F-37" vertex="1">
          <mxGeometry y="102" width="155" height="26" as="geometry" />
        </mxCell>
        <mxCell id="iJSi-uQUxxu9UWR6ey4F-42" value="Пользователь" style="swimlane;fontStyle=0;childLayout=stackLayout;horizontal=1;startSize=26;fillColor=none;horizontalStack=0;resizeParent=1;resizeParentMax=0;resizeLast=0;collapsible=1;marginBottom=0;whiteSpace=wrap;html=1;" parent="1" vertex="1">
          <mxGeometry x="45" y="640" width="155" height="130" as="geometry" />
        </mxCell>
        <mxCell id="iJSi-uQUxxu9UWR6ey4F-43" value="+ ID: number(10)" style="text;strokeColor=none;fillColor=none;align=left;verticalAlign=top;spacingLeft=4;spacingRight=4;overflow=hidden;rotatable=0;points=[[0,0.5],[1,0.5]];portConstraint=eastwest;whiteSpace=wrap;html=1;" parent="iJSi-uQUxxu9UWR6ey4F-42" vertex="1">
          <mxGeometry y="26" width="155" height="26" as="geometry" />
        </mxCell>
        <mxCell id="iJSi-uQUxxu9UWR6ey4F-44" value="+ Имя: varchar2(100)" style="text;strokeColor=none;fillColor=none;align=left;verticalAlign=top;spacingLeft=4;spacingRight=4;overflow=hidden;rotatable=0;points=[[0,0.5],[1,0.5]];portConstraint=eastwest;whiteSpace=wrap;html=1;" parent="iJSi-uQUxxu9UWR6ey4F-42" vertex="1">
          <mxGeometry y="52" width="155" height="26" as="geometry" />
        </mxCell>
        <mxCell id="iJSi-uQUxxu9UWR6ey4F-45" value="+ Роль: varchar2(50)" style="text;strokeColor=none;fillColor=none;align=left;verticalAlign=top;spacingLeft=4;spacingRight=4;overflow=hidden;rotatable=0;points=[[0,0.5],[1,0.5]];portConstraint=eastwest;whiteSpace=wrap;html=1;" parent="iJSi-uQUxxu9UWR6ey4F-42" vertex="1">
          <mxGeometry y="78" width="155" height="26" as="geometry" />
        </mxCell>
        <mxCell id="iJSi-uQUxxu9UWR6ey4F-46" value="+ Данные: varchar2(255)" style="text;strokeColor=none;fillColor=none;align=left;verticalAlign=top;spacingLeft=4;spacingRight=4;overflow=hidden;rotatable=0;points=[[0,0.5],[1,0.5]];portConstraint=eastwest;whiteSpace=wrap;html=1;" parent="iJSi-uQUxxu9UWR6ey4F-42" vertex="1">
          <mxGeometry y="104" width="155" height="26" as="geometry" />
        </mxCell>
        <mxCell id="iJSi-uQUxxu9UWR6ey4F-47" value="Результат теста" style="swimlane;fontStyle=0;childLayout=stackLayout;horizontal=1;startSize=26;fillColor=none;horizontalStack=0;resizeParent=1;resizeParentMax=0;resizeLast=0;collapsible=1;marginBottom=0;whiteSpace=wrap;html=1;" parent="1" vertex="1">
          <mxGeometry x="325" y="640" width="195" height="130" as="geometry" />
        </mxCell>
        <mxCell id="iJSi-uQUxxu9UWR6ey4F-48" value="+ ID пользователя: number(10)" style="text;strokeColor=none;fillColor=none;align=left;verticalAlign=top;spacingLeft=4;spacingRight=4;overflow=hidden;rotatable=0;points=[[0,0.5],[1,0.5]];portConstraint=eastwest;whiteSpace=wrap;html=1;" parent="iJSi-uQUxxu9UWR6ey4F-47" vertex="1">
          <mxGeometry y="26" width="195" height="26" as="geometry" />
        </mxCell>
        <mxCell id="iJSi-uQUxxu9UWR6ey4F-49" value="+ ID теста: number(10)" style="text;strokeColor=none;fillColor=none;align=left;verticalAlign=top;spacingLeft=4;spacingRight=4;overflow=hidden;rotatable=0;points=[[0,0.5],[1,0.5]];portConstraint=eastwest;whiteSpace=wrap;html=1;" parent="iJSi-uQUxxu9UWR6ey4F-47" vertex="1">
          <mxGeometry y="52" width="195" height="26" as="geometry" />
        </mxCell>
        <mxCell id="iJSi-uQUxxu9UWR6ey4F-50" value="+ Дата и время: timestamp" style="text;strokeColor=none;fillColor=none;align=left;verticalAlign=top;spacingLeft=4;spacingRight=4;overflow=hidden;rotatable=0;points=[[0,0.5],[1,0.5]];portConstraint=eastwest;whiteSpace=wrap;html=1;" parent="iJSi-uQUxxu9UWR6ey4F-47" vertex="1">
          <mxGeometry y="78" width="195" height="26" as="geometry" />
        </mxCell>
        <mxCell id="iJSi-uQUxxu9UWR6ey4F-51" value="+ Итоговый балл: float" style="text;strokeColor=none;fillColor=none;align=left;verticalAlign=top;spacingLeft=4;spacingRight=4;overflow=hidden;rotatable=0;points=[[0,0.5],[1,0.5]];portConstraint=eastwest;whiteSpace=wrap;html=1;" parent="iJSi-uQUxxu9UWR6ey4F-47" vertex="1">
          <mxGeometry y="104" width="195" height="26" as="geometry" />
        </mxCell>
        <mxCell id="iJSi-uQUxxu9UWR6ey4F-52" value="" style="edgeStyle=entityRelationEdgeStyle;fontSize=12;html=1;endArrow=ERoneToMany;rounded=0;exitX=1;exitY=0.5;exitDx=0;exitDy=0;entryX=0;entryY=0.5;entryDx=0;entryDy=0;" parent="1" source="iJSi-uQUxxu9UWR6ey4F-28" target="iJSi-uQUxxu9UWR6ey4F-36" edge="1">
          <mxGeometry width="100" height="100" relative="1" as="geometry">
            <mxPoint x="45" y="850" as="sourcePoint" />
            <mxPoint x="145" y="750" as="targetPoint" />
          </mxGeometry>
        </mxCell>
        <mxCell id="iJSi-uQUxxu9UWR6ey4F-53" value="" style="edgeStyle=entityRelationEdgeStyle;fontSize=12;html=1;endArrow=ERoneToMany;rounded=0;exitX=1;exitY=0.5;exitDx=0;exitDy=0;entryX=0;entryY=0.5;entryDx=0;entryDy=0;" parent="1" source="iJSi-uQUxxu9UWR6ey4F-33" target="iJSi-uQUxxu9UWR6ey4F-41" edge="1">
          <mxGeometry width="100" height="100" relative="1" as="geometry">
            <mxPoint x="355" y="610" as="sourcePoint" />
            <mxPoint x="505" y="688" as="targetPoint" />
          </mxGeometry>
        </mxCell>
        <mxCell id="iJSi-uQUxxu9UWR6ey4F-54" value="" style="edgeStyle=entityRelationEdgeStyle;fontSize=12;html=1;endArrow=ERoneToMany;rounded=0;exitX=1;exitY=0.5;exitDx=0;exitDy=0;entryX=0;entryY=0.5;entryDx=0;entryDy=0;" parent="1" source="iJSi-uQUxxu9UWR6ey4F-43" target="iJSi-uQUxxu9UWR6ey4F-48" edge="1">
          <mxGeometry width="100" height="100" relative="1" as="geometry">
            <mxPoint x="375" y="810" as="sourcePoint" />
            <mxPoint x="525" y="888" as="targetPoint" />
          </mxGeometry>
        </mxCell>
        <mxCell id="iJSi-uQUxxu9UWR6ey4F-55" value="" style="edgeStyle=entityRelationEdgeStyle;fontSize=12;html=1;endArrow=ERoneToMany;rounded=0;exitX=0.997;exitY=0.751;exitDx=0;exitDy=0;entryX=0;entryY=0.5;entryDx=0;entryDy=0;exitPerimeter=0;" parent="1" source="iJSi-uQUxxu9UWR6ey4F-28" target="iJSi-uQUxxu9UWR6ey4F-49" edge="1">
          <mxGeometry width="100" height="100" relative="1" as="geometry">
            <mxPoint x="195" y="540" as="sourcePoint" />
            <mxPoint x="345" y="618" as="targetPoint" />
          </mxGeometry>
        </mxCell>
        <mxCell id="-TkKK3aJITqQqKoXxAeD-1" value="" style="endArrow=none;html=1;rounded=0;" edge="1" parent="1">
          <mxGeometry width="50" height="50" relative="1" as="geometry">
            <mxPoint x="200" y="275" as="sourcePoint" />
            <mxPoint x="200" y="283" as="targetPoint" />
          </mxGeometry>
        </mxCell>
        <mxCell id="-TkKK3aJITqQqKoXxAeD-2" value="" style="endArrow=none;html=1;rounded=0;" edge="1" parent="1">
          <mxGeometry width="50" height="50" relative="1" as="geometry">
            <mxPoint x="197" y="92" as="sourcePoint" />
            <mxPoint x="197" y="100" as="targetPoint" />
          </mxGeometry>
        </mxCell>
        <mxCell id="-TkKK3aJITqQqKoXxAeD-3" value="" style="endArrow=none;html=1;rounded=0;" edge="1" parent="1">
          <mxGeometry width="50" height="50" relative="1" as="geometry">
            <mxPoint x="200" y="85" as="sourcePoint" />
            <mxPoint x="200" y="93" as="targetPoint" />
          </mxGeometry>
        </mxCell>
        <mxCell id="-TkKK3aJITqQqKoXxAeD-4" value="" style="endArrow=none;html=1;rounded=0;" edge="1" parent="1">
          <mxGeometry width="50" height="50" relative="1" as="geometry">
            <mxPoint x="519" y="85" as="sourcePoint" />
            <mxPoint x="519" y="93" as="targetPoint" />
          </mxGeometry>
        </mxCell>
        <mxCell id="-TkKK3aJITqQqKoXxAeD-6" value="" style="endArrow=none;html=1;rounded=0;" edge="1" parent="1">
          <mxGeometry width="50" height="50" relative="1" as="geometry">
            <mxPoint x="215" y="485" as="sourcePoint" />
            <mxPoint x="215" y="493" as="targetPoint" />
          </mxGeometry>
        </mxCell>
        <mxCell id="-TkKK3aJITqQqKoXxAeD-7" value="" style="endArrow=none;html=1;rounded=0;" edge="1" parent="1">
          <mxGeometry width="50" height="50" relative="1" as="geometry">
            <mxPoint x="219" y="492" as="sourcePoint" />
            <mxPoint x="219" y="500" as="targetPoint" />
          </mxGeometry>
        </mxCell>
        <mxCell id="-TkKK3aJITqQqKoXxAeD-8" value="" style="endArrow=none;html=1;rounded=0;" edge="1" parent="1">
          <mxGeometry width="50" height="50" relative="1" as="geometry">
            <mxPoint x="208" y="675" as="sourcePoint" />
            <mxPoint x="208" y="683" as="targetPoint" />
          </mxGeometry>
        </mxCell>
        <mxCell id="-TkKK3aJITqQqKoXxAeD-9" value="" style="endArrow=none;html=1;rounded=0;" edge="1" parent="1">
          <mxGeometry width="50" height="50" relative="1" as="geometry">
            <mxPoint x="555" y="485" as="sourcePoint" />
            <mxPoint x="555" y="493" as="targetPoint" />
          </mxGeometry>
        </mxCell>
      </root>
    </mxGraphModel>
  </diagram>
</mxfile>
